<svg xmlns="http://www.w3.org/2000/svg" fill="#fdfdfd" viewBox="0 0 17 20">
    <path d="M12.499 0.842c0.446-0.374 1.109-0.316 1.484 0.129l2.029 2.42c0.345 0.411 0.326 1.015-0.045 1.403l-3.006 3.149 0.034 0.039c2.053 2.445 1.733 6.105-0.714 8.158-1.081 0.907-2.403 1.351-3.716 1.351-1.057 0-2.108-0.286-3.028-0.848v0.027c-0.061 0.7-0.392 1.335-0.929 1.786-0.479 0.401-1.071 0.616-1.687 0.616-0.078 0-0.156-0.003-0.235-0.011-0.7-0.061-1.335-0.392-1.785-0.929-0.453-0.537-0.667-1.221-0.606-1.921 0.063-0.7 0.392-1.335 0.931-1.786 0.538-0.453 1.222-0.665 1.92-0.606l0.025 0.002c-0.807-2.046-0.396-4.441 1.2-6.112l0.813-0.849 1.413 1.684 1.613-1.354-1.353-1.612zM4.118 15.418c-0.562-0.661-1.553-0.744-2.218-0.186-0.667 0.56-0.755 1.556-0.194 2.224 0.56 0.668 1.556 0.755 2.224 0.195 0.668-0.561 0.755-1.557 0.195-2.224v0zM13.176 1.649l-4.839 4.057 0.677 0.807c0.374 0.445 0.316 1.109-0.131 1.483l-1.609 1.354c-0.446 0.374-1.109 0.316-1.484-0.129l-0.657-0.784c-1.646 1.722-1.766 4.444-0.2 6.313l0.008 0.009c1.683 1.995 4.665 2.253 6.665 0.574 2.003-1.681 2.265-4.668 0.583-6.673-0.217-0.259-0.454-0.487-0.709-0.687l3.726-3.905-2.029-2.419zM0.865 5.711l2.097 0.183 0.095 0.017c0.24 0.066 0.406 0.296 0.384 0.554-0.026 0.289-0.282 0.504-0.572 0.479l-2.096-0.184c-0.289-0.025-0.504-0.281-0.479-0.571s0.281-0.503 0.571-0.478zM3.269 2.279l0.067 0.066 1.353 1.613c0.187 0.223 0.158 0.555-0.065 0.742-0.198 0.166-0.482 0.161-0.674 0.002l-0.067-0.067-1.353-1.613c-0.187-0.222-0.158-0.555 0.064-0.741 0.198-0.166 0.482-0.162 0.674-0.002zM6.842 0.695c0.289 0.025 0.504 0.281 0.479 0.571l-0.183 2.097c-0.023 0.258-0.226 0.456-0.476 0.479h-0.095c-0.291-0.026-0.505-0.281-0.479-0.572l0.184-2.096c0.025-0.289 0.28-0.504 0.569-0.479z"></path>
</svg>