<svg xmlns="http://www.w3.org/2000/svg" fill="#fdfdfd" viewBox="0 0 20 20">
    <path d="M14 0c1.657 0 3 1.343 3 3v14c0 1.657-1.343 3-3 3h-8c-1.657 0-3-1.343-3-3v-14c0-1.657 1.343-3 3-3h8zM14 1h-8c-1.054 0-1.918 0.816-1.995 1.85l-0.005 0.15v14c0 1.054 0.816 1.918 1.85 1.995l0.15 0.005h8c1.054 0 1.918-0.816 1.995-1.85l0.005-0.15v-14c0-1.105-0.895-2-2-2zM13.5 2c0.828 0 1.5 0.672 1.5 1.5v13c0 0.828-0.672 1.5-1.5 1.5h-7c-0.828 0-1.5-0.672-1.5-1.5v-13c0-0.828 0.672-1.5 1.5-1.5zM13.5 3h-7c-0.276 0-0.5 0.224-0.5 0.5v13c0 0.276 0.224 0.5 0.5 0.5h7c0.276 0 0.5-0.224 0.5-0.5v-13c0-0.276-0.224-0.5-0.5-0.5z"></path>
</svg>