<svg width="20" height="20" fill="none" xmlns="http://www.w3.org/2000/svg">
    <path fill-rule="evenodd" clip-rule="evenodd" d="M10 0a5 5 0 0 1 4.995 4.783L15 5v1a3 3 0 0 1 3 3v8a3 3 0 0 1-3 3H5a3 3 0 0 1-3-3V9a3 3 0 0 1 3-3V5l.005-.217A5 5 0 0 1 10 0zm5 7H5a2 2 0 0 0-1.995 1.85L3 9v8a2 2 0 0 0 1.85 1.994L5 19h10a2 2 0 0 0 1.994-1.85L17 17V9a2 2 0 0 0-1.85-1.995L15 7zm-5 3a3 3 0 1 1 0 6 3 3 0 0 1 0-6zm0 1a2 2 0 1 0 0 4 2 2 0 0 0 0-4zm0-10C7.923 1 6.205 2.587 6.018 4.608l-.014.196L6 5v1h1V5l.005-.176a3 3 0 0 1 5.99 0L13 5v1h1v-.979l-.004-.195A4 4 0 0 0 10 1zm0 2a1.999 1.999 0 0 0-1.98 1.7l-.015.153L8 5v1h4v-.971l-.003-.147A2 2 0 0 0 10 3z" fill="#FDFDFD"/>
</svg>
